<?xml version="1.0" encoding="UTF-8"?>
<svg xmlns="http://www.w3.org/2000/svg" width="143" height="32" viewBox="0 0 143 32" fill="none">
  <path d="M9.768 24.48C8.08267 24.48 6.56267 24.1867 5.208 23.6C3.864 23.0133 2.75467 22.176 1.88 21.088C1.016 19.9893 0.466667 18.688 0.232 17.184L4.232 16.576C4.57333 17.9413 5.272 18.9973 6.328 19.744C7.39467 20.4907 8.62133 20.864 10.008 20.864C10.8293 20.864 11.6027 20.736 12.328 20.48C13.0533 20.224 13.64 19.8507 14.088 19.36C14.5467 18.8693 14.776 18.2667 14.776 17.552C14.776 17.232 14.7227 16.9387 14.616 16.672C14.5093 16.3947 14.3493 16.1493 14.136 15.936C13.9333 15.7227 13.6667 15.5307 13.336 15.36C13.016 15.1787 12.6427 15.024 12.216 14.896L6.264 13.136C5.752 12.9867 5.19733 12.7893 4.6 12.544C4.01333 12.288 3.45333 11.9413 2.92 11.504C2.39733 11.056 1.96533 10.4907 1.624 9.808C1.29333 9.11467 1.128 8.26133 1.128 7.248C1.128 5.76533 1.50133 4.52267 2.248 3.52C3.00533 2.50666 4.01867 1.74933 5.288 1.248C6.568 0.746665 7.98667 0.501332 9.544 0.511999C11.1227 0.522665 12.5307 0.794665 13.768 1.328C15.0053 1.85067 16.04 2.61333 16.872 3.616C17.704 4.61867 18.2907 5.82933 18.632 7.248L14.488 7.968C14.3173 7.15733 13.9867 6.46933 13.496 5.904C13.016 5.328 12.424 4.89067 11.72 4.592C11.0267 4.29333 10.2853 4.13333 9.496 4.112C8.728 4.10133 8.01333 4.21867 7.352 4.464C6.70133 4.69867 6.17333 5.04 5.768 5.488C5.37333 5.936 5.176 6.45867 5.176 7.056C5.176 7.62133 5.34667 8.08533 5.688 8.448C6.02933 8.8 6.45067 9.08267 6.952 9.296C7.464 9.49867 7.98133 9.66933 8.504 9.808L12.632 10.96C13.1973 11.1093 13.832 11.312 14.536 11.568C15.24 11.824 15.9173 12.1813 16.568 12.64C17.2187 13.0987 17.752 13.7013 18.168 14.448C18.5947 15.1947 18.808 16.144 18.808 17.296C18.808 18.4907 18.5573 19.5413 18.056 20.448C17.5653 21.344 16.8987 22.0907 16.056 22.688C15.2133 23.2853 14.248 23.7333 13.16 24.032C12.0827 24.3307 10.952 24.48 9.768 24.48ZM30.5753 24.48C28.8899 24.48 27.4766 24.08 26.3353 23.28C25.1939 22.48 24.3353 21.392 23.7593 20.016C23.1833 18.6293 22.8953 17.0773 22.8953 15.36C22.8953 13.6213 23.1833 12.064 23.7593 10.688C24.3353 9.312 25.1779 8.22933 26.2873 7.44C27.4073 6.64 28.7886 6.24 30.4313 6.24C32.0633 6.24 33.4766 6.64 34.6713 7.44C35.8766 8.22933 36.8099 9.312 37.4713 10.688C38.1326 12.0533 38.4633 13.6107 38.4633 15.36C38.4633 17.088 38.1379 18.64 37.4873 20.016C36.8366 21.392 35.9193 22.48 34.7353 23.28C33.5513 24.08 32.1646 24.48 30.5753 24.48ZM22.2393 31.68V6.72H25.6473V18.848H26.1273V31.68H22.2393ZM29.9833 21.024C30.9859 21.024 31.8126 20.7733 32.4633 20.272C33.1139 19.7707 33.5939 19.0933 33.9033 18.24C34.2233 17.376 34.3833 16.416 34.3833 15.36C34.3833 14.3147 34.2233 13.3653 33.9033 12.512C33.5833 11.648 33.0873 10.9653 32.4153 10.464C31.7433 9.952 30.8899 9.696 29.8553 9.696C28.8739 9.696 28.0739 9.936 27.4553 10.416C26.8366 10.8853 26.3779 11.5467 26.0793 12.4C25.7913 13.2427 25.6473 14.2293 25.6473 15.36C25.6473 16.48 25.7913 17.4667 26.0793 18.32C26.3779 19.1733 26.8419 19.84 27.4713 20.32C28.1113 20.7893 28.9486 21.024 29.9833 21.024ZM49.622 24.48C47.894 24.48 46.3847 24.0907 45.094 23.312C43.8033 22.5333 42.8007 21.4613 42.086 20.096C41.382 18.72 41.03 17.1413 41.03 15.36C41.03 13.5467 41.3927 11.9573 42.118 10.592C42.8433 9.22667 43.8513 8.16 45.142 7.392C46.4327 6.624 47.926 6.24 49.622 6.24C51.3607 6.24 52.8753 6.62933 54.166 7.408C55.4567 8.18667 56.4593 9.264 57.174 10.64C57.8887 12.0053 58.246 13.5787 58.246 15.36C58.246 17.152 57.8833 18.736 57.158 20.112C56.4433 21.4773 55.4407 22.5493 54.15 23.328C52.8593 24.096 51.35 24.48 49.622 24.48ZM49.622 20.864C51.158 20.864 52.2993 20.352 53.046 19.328C53.7927 18.304 54.166 16.9813 54.166 15.36C54.166 13.6853 53.7873 12.352 53.03 11.36C52.2727 10.3573 51.1367 9.856 49.622 9.856C48.5873 9.856 47.734 10.0907 47.062 10.56C46.4007 11.0187 45.91 11.664 45.59 12.496C45.27 13.3173 45.11 14.272 45.11 15.36C45.11 17.0347 45.4887 18.3733 46.246 19.376C47.014 20.368 48.1393 20.864 49.622 20.864ZM61.7713 24V6.72H65.1793V10.928L64.7633 10.384C64.9766 9.808 65.2593 9.28533 65.6113 8.816C65.9739 8.336 66.4059 7.94133 66.9073 7.632C67.3339 7.344 67.8033 7.12 68.3153 6.96C68.8379 6.78933 69.3713 6.688 69.9153 6.656C70.4593 6.61333 70.9873 6.63467 71.4993 6.72V10.32C70.9873 10.1707 70.3953 10.1227 69.7233 10.176C69.0619 10.2293 68.4646 10.416 67.9313 10.736C67.3979 11.024 66.9606 11.392 66.6193 11.84C66.2886 12.288 66.0433 12.8 65.8833 13.376C65.7233 13.9413 65.6433 14.5547 65.6433 15.216V24H61.7713ZM84.6805 24C83.5392 24.2133 82.4192 24.304 81.3205 24.272C80.2325 24.2507 79.2565 24.0533 78.3925 23.68C77.5285 23.296 76.8725 22.6933 76.4245 21.872C76.0298 21.1253 75.8218 20.3627 75.8005 19.584C75.7792 18.8053 75.7685 17.9253 75.7685 16.944V1.92H79.6085V16.72C79.6085 17.4133 79.6138 18.0213 79.6245 18.544C79.6458 19.0667 79.7578 19.4933 79.9605 19.824C80.3445 20.464 80.9578 20.8213 81.8005 20.896C82.6432 20.9707 83.6032 20.928 84.6805 20.768V24ZM72.6325 9.744V6.72H84.6805V9.744H72.6325ZM95.1533 24.48C93.4253 24.48 91.9159 24.0907 90.6253 23.312C89.3346 22.5333 88.3319 21.4613 87.6173 20.096C86.9133 18.72 86.5613 17.1413 86.5613 15.36C86.5613 13.5467 86.9239 11.9573 87.6493 10.592C88.3746 9.22667 89.3826 8.16 90.6733 7.392C91.9639 6.624 93.4573 6.24 95.1533 6.24C96.8919 6.24 98.4066 6.62933 99.6973 7.408C100.988 8.18667 101.991 9.264 102.705 10.64C103.42 12.0053 103.777 13.5787 103.777 15.36C103.777 17.152 103.415 18.736 102.689 20.112C101.975 21.4773 100.972 22.5493 99.6813 23.328C98.3906 24.096 96.8813 24.48 95.1533 24.48ZM95.1533 20.864C96.6893 20.864 97.8306 20.352 98.5773 19.328C99.3239 18.304 99.6973 16.9813 99.6973 15.36C99.6973 13.6853 99.3186 12.352 98.5613 11.36C97.8039 10.3573 96.6679 9.856 95.1533 9.856C94.1186 9.856 93.2653 10.0907 92.5933 10.56C91.9319 11.0187 91.4413 11.664 91.1213 12.496C90.8013 13.3173 90.6413 14.272 90.6413 15.36C90.6413 17.0347 91.0199 18.3733 91.7773 19.376C92.5453 20.368 93.6706 20.864 95.1533 20.864Z" fill="white"></path>
  <path d="M110.932 24V4.576H103.476V0.959999H122.244V4.576H114.788V24H110.932ZM129.987 24L122.723 0.959999H126.691L132.771 20.256L138.931 0.959999H142.899L135.635 24H129.987Z" fill="#FF1B1B"></path>
</svg>
